<svg width="35" height="35" viewBox="0 0 35 35" fill="none" xmlns="http://www.w3.org/2000/svg">
<path d="M25.4512 3.29517C25.8618 2.88455 26.3493 2.55883 26.8858 2.3366C27.4223 2.11438 27.9973 2 28.578 2C29.1587 2 29.7337 2.11438 30.2702 2.3366C30.8067 2.55883 31.2942 2.88455 31.7048 3.29517C32.1154 3.70579 32.4412 4.19327 32.6634 4.72977C32.8856 5.26627 33 5.84129 33 6.422C33 7.0027 32.8856 7.57772 32.6634 8.11422C32.4412 8.65072 32.1154 9.1382 31.7048 9.54882L10.5988 30.6549L2 33L4.34512 24.4012L25.4512 3.29517Z" stroke="white" stroke-width="4" stroke-linecap="round" stroke-linejoin="round"/>
</svg>
